<?xml version="1.0" encoding="UTF-8"?>
<svg width="147px" height="147px" viewBox="0 0 147 147" version="1.1" xmlns="http://www.w3.org/2000/svg" xmlns:xlink="http://www.w3.org/1999/xlink">
    <!-- Generator: sketchtool 63.1 (101010) - https://sketch.com -->
    <title>3DDC6D97-58C4-419D-8F30-527E6D311E45</title>
    <desc>Created with sketchtool.</desc>
    <defs>
        <linearGradient x1="50%" y1="0%" x2="50%" y2="100%" id="linearGradient-1">
            <stop stop-color="#CFDCFF" offset="0%"></stop>
            <stop stop-color="#FFFFFF" offset="100%"></stop>
        </linearGradient>
    </defs>
    <g id="Page-1" stroke="none" stroke-width="1" fill="none" fill-rule="evenodd">
        <g id="splash" transform="translate(-114.000000, -158.000000)">
            <g id="icon" transform="translate(116.000000, 167.000000)">
                <g id="Group-3-Copy" transform="translate(7.000000, 0.000000)">
                    <circle id="Oval" stroke="#415381" stroke-width="8.25" fill="#BFBDF4" cx="64.5" cy="64.5" r="68.625"></circle>
                    <ellipse id="Oval-Copy" fill="#DFDEFE" cx="68.5" cy="65" rx="59.5" ry="60"></ellipse>
                    <path d="M65.3963677,59.2497724 C53.2484102,59.2501596 42.0803396,63.5236833 33.1633312,69.0712637 C21.9752772,76.0317402 13.3499997,85.0908563 13.2759889,89.774317 C13.2018583,94.4653544 22.6130317,104.408197 33.7797957,112.234814 C42.6904465,118.480154 53.4705272,123.527682 64.188615,123.734447 C74.643611,123.936136 85.2447648,119.223368 94.1321108,113.248461 C105.80675,105.399674 115.705161,95.1133806 115.776146,90.6213639 C115.846665,86.158899 107.483318,76.4997308 96.388337,69.1791947 C87.8992528,63.5780452 77.2288247,59.2493953 65.3963677,59.2497724 Z" id="Oval" stroke="url(#linearGradient-1)" stroke-width="10.5" fill="#415381" transform="translate(64.526087, 91.495149) rotate(179.000000) translate(-64.526087, -91.495149) "></path>
                </g>
                <path d="M125.377382,85.6008175 C128.588007,88.631091 141.058988,82.3908566 142.42062,80.3032101 C143.782253,78.2155636 142.809683,87.4606918 138.801949,91.1469601 C134.794215,94.8332284 127.433006,95.1755356 126.437415,95.004382 C125.441824,94.8332284 122.166756,82.5705441 125.377382,85.6008175 Z" id="Rectangle" fill="#E4ECFF"></path>
                <path d="M1.37738174,85.6008175 C4.58800701,88.631091 17.0589877,82.3908566 18.4206205,80.3032101 C19.7822533,78.2155636 18.8096827,87.4606918 14.8019489,91.1469601 C10.7942151,94.8332284 3.43300636,95.1755356 2.4374151,95.004382 C1.44182384,94.8332284 -1.83324353,82.5705441 1.37738174,85.6008175 Z" id="Rectangle-Copy" fill="#E4ECFF" transform="translate(9.500000, 87.519485) scale(-1, 1) translate(-9.500000, -87.519485) "></path>
            </g>
        </g>
    </g>
</svg>